# xmcd
#
# Track frame offsets:
#	150
#	13901
#	31169
#	54578
#	71015
#
# Disc length: 1078 seconds
#
# Revision: 0
# Processed by: cddbd v1.5.2PL0 Copyright (c) Steve Scherf et al.
# Submitted via: dBpowerAMP V4.0
#
DISCID=3d043405
DTITLE=Justin Foutz - Justin foutz
DYEAR=2009
DGENRE=Country
TTITLE0=Mr. Know It All
TTITLE1=Things Will Get Better
TTITLE2=Living Day By Day
TTITLE3=Becky
TTITLE4=Crash And Burn
EXTD=
EXTT0=
EXTT1=
EXTT2=
EXTT3=
EXTT4=
PLAYORDER=
